<svg id="Objects" xmlns="http://www.w3.org/2000/svg" xmlns:xlink="http://www.w3.org/1999/xlink" viewBox="0 0 383.5 303.62"><defs><style>.cls-1{fill:#fcfaf2;}.cls-2,.cls-27,.cls-28{fill:#fafcfb;}.cls-16,.cls-3,.cls-4,.cls-5{fill:#a63fff;}.cls-3{opacity:0.19;}.cls-4{opacity:0.13;}.cls-5{opacity:0.31;}.cls-10,.cls-17,.cls-21,.cls-26,.cls-6,.cls-8{fill:none;}.cls-10,.cls-6{stroke:#2d2a44;}.cls-17,.cls-21,.cls-26,.cls-6,.cls-8{stroke-miterlimit:10;}.cls-10,.cls-26,.cls-6{stroke-width:2px;}.cls-7{fill:#b772ff;}.cls-8{stroke:#b772ff;}.cls-8,.cls-9{stroke-width:3px;}.cls-13,.cls-9{fill:#740965;}.cls-9{stroke:#740965;}.cls-10,.cls-9{stroke-linecap:round;stroke-linejoin:round;}.cls-11{fill:#5433ab;}.cls-12{fill:#f9fbfc;}.cls-14{fill:#66635e;}.cls-15{fill:#8a867f;}.cls-17{stroke:#000;stroke-width:0.75px;}.cls-18{fill:#28f5be;}.cls-19{fill:#1e1e1e;}.cls-20{fill:#aff9e4;}.cls-21{stroke:#1e1e1e;}.cls-22{fill:#3f2344;}.cls-23{clip-path:url(#clip-path);}.cls-24{fill:#ce1da6;}.cls-25{clip-path:url(#clip-path-2);}.cls-26{stroke:#f3f0e8;}.cls-27{font-size:6.98px;font-family:Quicksand-Bold, Quicksand;font-weight:700;}.cls-28{font-size:2.77px;font-family:Quicksand-Regular, Quicksand;}.cls-29{letter-spacing:-0.01em;}.cls-30{clip-path:url(#clip-path-3);}</style><clipPath id="clip-path" transform="translate(-184 -98.94)"><rect class="cls-1" x="377.65" y="286.17" width="70.85" height="14.08"/></clipPath><clipPath id="clip-path-2" transform="translate(-184 -98.94)"><rect class="cls-1" x="377.65" y="311.51" width="70.85" height="13.61"/></clipPath><clipPath id="clip-path-3" transform="translate(-184 -98.94)"><polygon class="cls-2" points="450.5 338.94 478.2 340.15 479.4 336.14 455.56 321.96 456.42 319.08 453.93 318.34 447.11 341.19 449.6 341.94 450.5 338.94"/></clipPath></defs><title>construction</title><path class="cls-3" d="M256,372.14A38.49,38.49,0,0,0,259.41,362v-.05l-5.31-1a32.81,32.81,0,0,0,.45-7.82l5.44-.31a37.86,37.86,0,0,0-2.14-10.52l-5.17,1.84a33.36,33.36,0,0,0-3.5-7l4.6-3a37.8,37.8,0,0,0-7.09-8l-3.57,4.18a32.76,32.76,0,0,0-6.49-4.36l2.45-4.88a38.16,38.16,0,0,0-10.15-3.4h0l-.73,3.81-.28,1.49-.16,0a32.6,32.6,0,0,0-7.66-.51l-.3-5.34a38,38,0,0,0-10.53,2.12l1.77,5a33.39,33.39,0,0,0-7.08,3.45l-2.86-4.36a38.13,38.13,0,0,0-8.05,7.1L197,333.6a32.44,32.44,0,0,0-4.45,6.55l-4.5-2.27A38.29,38.29,0,0,0,184.59,348h0v0l4.81.9h.07c0,.06,0,.12,0,.18a33.36,33.36,0,0,0-.51,7.75l-4.91.27a38,38,0,0,0,2.12,10.53l4.62-1.64a32.44,32.44,0,0,0,3.53,7.13l-4.09,2.68a38.1,38.1,0,0,0,7.09,8.06l3.18-3.72a33,33,0,0,0,6.63,4.39L204.87,389A38,38,0,0,0,215,392.4h0l.9-4.88a32.73,32.73,0,0,0,7.93.46l.28,5a38,38,0,0,0,10.53-2.11L233,386.06a33.56,33.56,0,0,0,7-3.58l2.84,4.34a38.05,38.05,0,0,0,8.06-7.08l-4-3.43a32.86,32.86,0,0,0,4.3-6.58Zm-37.4,0a17.25,17.25,0,1,1,20.12-13.8A17.29,17.29,0,0,1,218.58,372.13Z" transform="translate(-184 -98.94)"/><path class="cls-4" d="M236.76,157.76a21.88,21.88,0,0,0,2-5.81v0l-3-.58a18.75,18.75,0,0,0,.26-4.47l3.11-.18a21.7,21.7,0,0,0-1.22-6l-3,1a18.86,18.86,0,0,0-2-4l2.63-1.73a21.68,21.68,0,0,0-4-4.6l-2.05,2.39a18.1,18.1,0,0,0-3.71-2.49l1.41-2.79a22,22,0,0,0-5.8-2h0l-.41,2.18-.16.85h-.09a18.61,18.61,0,0,0-4.38-.3l-.18-3a21.7,21.7,0,0,0-6,1.22l1,2.84a18.29,18.29,0,0,0-4.05,2l-1.63-2.49a21.68,21.68,0,0,0-4.6,4.05l2.22,1.9a18.53,18.53,0,0,0-2.54,3.74l-2.58-1.29A21.7,21.7,0,0,0,196,144h0v0l2.75.51h0a.44.44,0,0,0,0,.1,18.49,18.49,0,0,0-.29,4.43l-2.81.16a21.4,21.4,0,0,0,1.21,6l2.64-.94a18.39,18.39,0,0,0,2,4.07l-2.34,1.54a21.68,21.68,0,0,0,4,4.6l1.82-2.12a19.47,19.47,0,0,0,3.79,2.51l-1.26,2.51a21.67,21.67,0,0,0,5.8,2h0l.51-2.79a18.35,18.35,0,0,0,4.54.26l.16,2.87a21.69,21.69,0,0,0,6-1.21l-1-2.76a18.77,18.77,0,0,0,4-2l1.63,2.48a21.68,21.68,0,0,0,4.6-4.05l-2.29-2a18.53,18.53,0,0,0,2.46-3.75Zm-21.38,0a9.86,9.86,0,1,1,11.5-7.88A9.87,9.87,0,0,1,215.38,157.75Z" transform="translate(-184 -98.94)"/><path class="cls-5" d="M556.19,322.26a41.38,41.38,0,0,0,3.72-11.05v-.06l-5.77-1.09a35.47,35.47,0,0,0,.49-8.5l5.91-.34a40.77,40.77,0,0,0-2.32-11.44l-5.62,2a36.41,36.41,0,0,0-3.8-7.59l5-3.3a41.45,41.45,0,0,0-7.71-8.74l-3.88,4.54a35.88,35.88,0,0,0-7.06-4.74l2.66-5.3a41.08,41.08,0,0,0-11-3.7h0l-.79,4.14-.3,1.62-.18,0a35.61,35.61,0,0,0-8.33-.55l-.33-5.81a41.11,41.11,0,0,0-11.44,2.31l1.92,5.41a36.31,36.31,0,0,0-7.7,3.74l-3.1-4.73a41.55,41.55,0,0,0-8.76,7.71l4.23,3.62a34.8,34.8,0,0,0-4.83,7.11l-4.9-2.46a41.3,41.3,0,0,0-3.7,11h0v.05l5.22,1,.08,0c0,.06,0,.12,0,.19a35.34,35.34,0,0,0-.55,8.42l-5.35.3a41.25,41.25,0,0,0,2.31,11.45l5-1.78a35.65,35.65,0,0,0,3.84,7.75l-4.45,2.91a41.55,41.55,0,0,0,7.71,8.76l3.46-4A35.64,35.64,0,0,0,503,335.8l-2.41,4.78a41.77,41.77,0,0,0,11,3.71h0l1-5.3a35.49,35.49,0,0,0,8.63.49l.3,5.46a41.53,41.53,0,0,0,11.45-2.3l-1.86-5.25a35.74,35.74,0,0,0,7.65-3.88l3.09,4.72a41.6,41.6,0,0,0,8.77-7.7l-4.36-3.74a35,35,0,0,0,4.68-7.14Zm-40.66,0a18.75,18.75,0,1,1,21.87-15A18.78,18.78,0,0,1,515.53,322.25Z" transform="translate(-184 -98.94)"/><path class="cls-4" d="M339.26,221.91a53.34,53.34,0,0,0,4.79-14.2v-.08l-7.41-1.4a45.92,45.92,0,0,0,.62-10.93l7.6-.43a52.93,52.93,0,0,0-3-14.71l-7.23,2.58a46.15,46.15,0,0,0-4.88-9.76l6.43-4.23a53.38,53.38,0,0,0-9.91-11.24l-5,5.83a45.65,45.65,0,0,0-9.07-6.08l3.42-6.82a53.28,53.28,0,0,0-14.17-4.75h0l-1,5.32-.39,2.09-.23,0a46.22,46.22,0,0,0-10.7-.72l-.42-7.46a53.21,53.21,0,0,0-14.71,3l2.47,6.95a45.94,45.94,0,0,0-9.89,4.81l-4-6.08a52.91,52.91,0,0,0-11.25,9.91l5.43,4.64a45.36,45.36,0,0,0-6.21,9.15l-6.29-3.16a53.05,53.05,0,0,0-4.76,14.15h0v0l6.7,1.25.11,0-.06.25a46.14,46.14,0,0,0-.71,10.82l-6.86.39a53,53,0,0,0,3,14.71l6.45-2.29a46.2,46.2,0,0,0,4.93,10l-5.71,3.74a53.19,53.19,0,0,0,9.9,11.26l4.45-5.2a45.9,45.9,0,0,0,9.27,6.14l-3.09,6.14A53.28,53.28,0,0,0,282,250.22h0l1.26-6.81a45.64,45.64,0,0,0,11.08.63l.39,7a52.91,52.91,0,0,0,14.71-3l-2.39-6.73a45.71,45.71,0,0,0,9.83-5l4,6.07a53.44,53.44,0,0,0,11.26-9.9l-5.6-4.79a45.53,45.53,0,0,0,6-9.19Zm-52.25,0a24.1,24.1,0,1,1,28.11-19.27A24.11,24.11,0,0,1,287,221.89Z" transform="translate(-184 -98.94)"/><line class="cls-6" x1="213.94" y1="62.13" x2="213.94" y2="33.59"/><polygon class="cls-7" points="280.5 290.87 280.5 34.82 298.53 34.82 298.53 290.87 301.43 290.87 301.43 31.92 277.6 31.92 277.6 290.87 280.5 290.87"/><rect class="cls-7" x="458.49" y="348.54" width="29.86" height="2.9" transform="translate(-292.82 338.34) rotate(-45)"/><rect class="cls-7" x="471.97" y="335.06" width="2.9" height="29.86" transform="translate(-292.82 338.33) rotate(-45)"/><rect class="cls-7" x="458.49" y="369.44" width="29.86" height="2.9" transform="translate(-307.6 344.45) rotate(-45)"/><rect class="cls-7" x="471.97" y="355.97" width="2.9" height="29.86" transform="translate(-307.6 344.45) rotate(-45)"/><polygon class="cls-7" points="293.46 290.87 301 283.33 298.95 281.28 289.36 290.87 293.46 290.87"/><polygon class="cls-7" points="289.49 290.87 279.89 281.28 277.84 283.33 285.38 290.87 289.49 290.87"/><rect class="cls-7" x="458.49" y="197.05" width="29.86" height="2.9" transform="translate(-185.7 293.96) rotate(-45)"/><rect class="cls-7" x="471.97" y="183.57" width="2.9" height="29.86" transform="translate(-185.7 293.96) rotate(-45)"/><rect class="cls-7" x="458.49" y="175.61" width="29.86" height="2.9" transform="translate(-170.53 287.69) rotate(-45)"/><rect class="cls-7" x="471.97" y="162.13" width="2.9" height="29.86" transform="translate(-170.54 287.68) rotate(-45)"/><rect class="cls-7" x="458.49" y="154.17" width="29.86" height="2.9" transform="translate(-155.37 281.41) rotate(-45)"/><rect class="cls-7" x="471.97" y="140.69" width="2.9" height="29.86" transform="translate(-155.38 281.4) rotate(-45)"/><rect class="cls-7" x="458.49" y="218.69" width="29.86" height="2.9" transform="translate(-201 300.3) rotate(-45)"/><rect class="cls-7" x="471.97" y="205.22" width="2.9" height="29.86" transform="translate(-201 300.3) rotate(-45)"/><rect class="cls-7" x="458.49" y="240.33" width="29.86" height="2.9" transform="translate(-216.31 306.64) rotate(-45)"/><rect class="cls-7" x="471.97" y="226.86" width="2.9" height="29.86" transform="translate(-216.31 306.64) rotate(-45)"/><rect class="cls-7" x="458.49" y="261.98" width="29.86" height="2.9" transform="translate(-231.61 312.99) rotate(-45)"/><rect class="cls-7" x="471.97" y="248.5" width="2.9" height="29.86" transform="translate(-231.61 312.98) rotate(-45)"/><rect class="cls-7" x="458.49" y="283.62" width="29.86" height="2.9" transform="translate(-246.91 319.33) rotate(-45)"/><rect class="cls-7" x="471.97" y="270.14" width="2.9" height="29.86" transform="translate(-246.91 319.32) rotate(-45)"/><rect class="cls-7" x="458.49" y="305.26" width="29.86" height="2.9" transform="translate(-262.22 325.65) rotate(-45)"/><rect class="cls-7" x="471.97" y="291.78" width="2.9" height="29.86" transform="translate(-262.22 325.65) rotate(-45)"/><rect class="cls-7" x="458.49" y="326.9" width="29.86" height="2.9" transform="translate(-277.52 332.01) rotate(-45)"/><rect class="cls-7" x="471.97" y="313.42" width="2.9" height="29.86" transform="translate(-277.52 331.99) rotate(-45)"/><path class="cls-8" d="M350.31,111.38l-8,16.37a3.17,3.17,0,0,0,2.85,4.56H473V111.38Z" transform="translate(-184 -98.94)"/><line class="cls-8" x1="258.64" y1="33.37" x2="237.69" y2="12.26"/><line class="cls-8" x1="258.64" y1="12.26" x2="237.69" y2="33.37"/><line class="cls-8" x1="237.17" y1="33.37" x2="216.23" y2="12.26"/><line class="cls-8" x1="237.17" y1="12.26" x2="216.23" y2="33.37"/><line class="cls-8" x1="215.71" y1="33.37" x2="194.77" y2="12.26"/><line class="cls-8" x1="215.71" y1="12.26" x2="194.77" y2="33.37"/><line class="cls-8" x1="194.24" y1="33.37" x2="173.3" y2="12.26"/><line class="cls-8" x1="194.24" y1="12.26" x2="173.3" y2="33.37"/><path class="cls-8" d="M551.38,111.38,565,126.12a3.68,3.68,0,0,1-2.7,6.19H473V111.38Z" transform="translate(-184 -98.94)"/><line class="cls-8" x1="319.7" y1="33.37" x2="340.81" y2="12.26"/><line class="cls-8" x1="319.7" y1="12.26" x2="340.81" y2="33.37"/><line class="cls-8" x1="341.34" y1="33.37" x2="362.45" y2="12.26"/><line class="cls-8" x1="341.34" y1="12.26" x2="362.45" y2="33.37"/><line class="cls-9" x1="11.82" y1="302.12" x2="360.08" y2="302.12"/><path class="cls-10" d="M398.19,201.58a5.65,5.65,0,1,1-1.61,8.16" transform="translate(-184 -98.94)"/><line class="cls-10" x1="214.19" y1="102.64" x2="214.19" y2="93.94"/><path class="cls-11" d="M287.07,0h38.46a0,0,0,0,1,0,0V46.41a0,0,0,0,1,0,0H257.77a0,0,0,0,1,0,0V29.29A29.29,29.29,0,0,1,287.07,0Z"/><path class="cls-12" d="M480.06,103.78H474c-19.72,0-26.54,11-28.16,25.08H475a5.11,5.11,0,0,0,5.11-5.11Z" transform="translate(-184 -98.94)"/><path class="cls-11" d="M272.47,278.91H307a16.63,16.63,0,0,1,16.63,16.63v6.57a0,0,0,0,1,0,0H255.84a0,0,0,0,1,0,0v-6.57A16.63,16.63,0,0,1,272.47,278.91Z"/><path class="cls-13" d="M96.68,263.92h171a0,0,0,0,1,0,0v0a9.48,9.48,0,0,1-9.48,9.48H96.68a0,0,0,0,1,0,0v-9.51A0,0,0,0,1,96.68,263.92Z"/><path class="cls-13" d="M289.73,363.13h-9.46V274.29a9.46,9.46,0,0,1,9.46-9.46h0Z" transform="translate(-184 -98.94)"/><path class="cls-14" d="M223.91,399.53a15.27,15.27,0,0,1,0-30.54H285a15.27,15.27,0,0,1,0,30.54Z" transform="translate(-184 -98.94)"/><path class="cls-15" d="M39.91,274.79H101a10.52,10.52,0,0,1,10.52,10.52v0A10.52,10.52,0,0,1,101,295.84H39.91a10.52,10.52,0,0,1-10.52-10.52v0a10.53,10.53,0,0,1,10.53-10.53Z"/><circle class="cls-14" cx="42.05" cy="285.32" r="7.43"/><circle class="cls-14" cx="60.98" cy="285.32" r="7.43"/><circle class="cls-14" cx="79.91" cy="285.32" r="7.43"/><circle class="cls-14" cx="98.84" cy="285.32" r="7.43"/><rect class="cls-16" x="42.05" y="259.58" width="55.64" height="10.47"/><path class="cls-7" d="M69.87,196.25h0a27.82,27.82,0,0,1,27.82,27.82v37.2a0,0,0,0,1,0,0H42a0,0,0,0,1,0,0v-37.2A27.82,27.82,0,0,1,69.87,196.25Z"/><path class="cls-12" d="M249,308.31h28.94a0,0,0,0,1,0,0v38.78a0,0,0,0,1,0,0H249a19.21,19.21,0,0,1-19.21-19.21v-.36A19.21,19.21,0,0,1,249,308.31Z" transform="translate(397.57 -25.11) rotate(90)"/><path d="M245.62,320.06h0a4.63,4.63,0,0,0-4.63,4.63v26.37a.71.71,0,0,0,.71.71h7.84a.71.71,0,0,0,.71-.71V324.69A4.63,4.63,0,0,0,245.62,320.06Z" transform="translate(-184 -98.94)"/><line class="cls-17" x1="74.04" y1="252.83" x2="74.04" y2="238.75"/><path d="M259.3,337.69a1.26,1.26,0,1,1-1.26-1.26A1.26,1.26,0,0,1,259.3,337.69Z" transform="translate(-184 -98.94)"/><line class="cls-17" x1="75.9" y1="252.83" x2="78.78" y2="239.53"/><path d="M264,338.73a1.26,1.26,0,1,1-2.46-.53,1.26,1.26,0,0,1,2.46.53Z" transform="translate(-184 -98.94)"/><path class="cls-16" d="M273.91,353.92H234.57a2,2,0,0,1-2-2h0a2,2,0,0,1,2-2h39.34a2,2,0,0,1,2,2h0A2,2,0,0,1,273.91,353.92Z" transform="translate(-184 -98.94)"/><rect class="cls-18" x="117.25" y="106.75" width="214.09" height="156.97"/><rect class="cls-19" x="117.25" y="106.75" width="214.09" height="15.37"/><rect class="cls-20" x="117.25" y="106.75" width="42.83" height="156.97"/><path class="cls-19" d="M312,243.81a1.86,1.86,0,1,1-1.86-1.86A1.85,1.85,0,0,1,312,243.81Z" transform="translate(-184 -98.94)"/><path class="cls-19" d="M312,254.9a1.86,1.86,0,1,1-1.86-1.85A1.85,1.85,0,0,1,312,254.9Z" transform="translate(-184 -98.94)"/><path class="cls-19" d="M312,266a1.86,1.86,0,1,1-1.86-1.85A1.86,1.86,0,0,1,312,266Z" transform="translate(-184 -98.94)"/><path class="cls-19" d="M312,277.09a1.86,1.86,0,1,1-1.86-1.86A1.85,1.85,0,0,1,312,277.09Z" transform="translate(-184 -98.94)"/><rect class="cls-12" x="130.79" y="142.12" width="22.53" height="4.22" rx="1.99"/><rect class="cls-12" x="130.79" y="153.85" width="22.53" height="4.22" rx="1.99"/><rect class="cls-12" x="130.79" y="164.07" width="22.53" height="4.22" rx="1.99"/><rect class="cls-12" x="130.79" y="175.79" width="22.53" height="4.22" rx="1.99"/><line class="cls-21" x1="123.55" y1="188.8" x2="154.06" y2="188.8"/><line class="cls-21" x1="123.55" y1="193.03" x2="154.06" y2="193.03"/><line class="cls-21" x1="123.55" y1="259.27" x2="154.06" y2="259.27"/><line class="cls-21" x1="123.55" y1="253.99" x2="154.06" y2="253.99"/><rect class="cls-19" x="127.06" y="199.73" width="23.49" height="48.98"/><rect class="cls-12" x="130.37" y="205.94" width="17.4" height="3.72"/><rect class="cls-12" x="130.37" y="213.73" width="17.4" height="3.72"/><rect class="cls-12" x="130.37" y="221.52" width="17.4" height="3.72"/><rect class="cls-12" x="130.37" y="229.3" width="17.4" height="3.72"/><rect class="cls-12" x="130.37" y="237.09" width="17.4" height="3.72"/><rect class="cls-12" x="165.7" y="111.3" width="131.9" height="6.43"/><rect class="cls-12" x="307.88" y="111.3" width="10.56" height="1.39"/><rect class="cls-12" x="307.88" y="113.74" width="10.56" height="1.39"/><rect class="cls-12" x="307.88" y="116.17" width="10.56" height="1.39"/><rect class="cls-12" x="126.68" y="115.97" width="25.46" height="18.2"/><line class="cls-21" x1="132.74" y1="119.9" x2="146.08" y2="130.23"/><line class="cls-21" x1="146.08" y1="119.9" x2="132.74" y2="130.23"/><path class="cls-16" d="M262.39,39.86h60.13a8.82,8.82,0,0,1,8.82,8.82v3.93a0,0,0,0,1,0,0H252.2a0,0,0,0,1,0,0V50A10.19,10.19,0,0,1,262.39,39.86Z"/><rect class="cls-7" x="304.03" y="4.84" width="2.55" height="23.95"/><rect class="cls-7" x="309.28" y="4.84" width="2.55" height="23.95"/><rect class="cls-7" x="314.53" y="4.84" width="2.55" height="23.95"/><rect class="cls-16" x="210.4" y="84.22" width="7.49" height="11.16"/><path class="cls-16" d="M397.94,186.54h0a9.51,9.51,0,0,1-9.52-9.51V163.32a9.51,9.51,0,0,1,9.52-9.51h0a9.51,9.51,0,0,1,9.51,9.51V177A9.51,9.51,0,0,1,397.94,186.54Z" transform="translate(-184 -98.94)"/><path class="cls-13" d="M388.42,170.2V177a9.51,9.51,0,0,0,9.52,9.51h0a9.51,9.51,0,0,0,9.51-9.51V170.2Z" transform="translate(-184 -98.94)"/><ellipse class="cls-13" cx="245.44" cy="241.45" rx="66.4" ry="3.6"/><rect class="cls-22" x="201.62" y="183.01" width="5.16" height="55.83"/><rect class="cls-22" x="199.75" y="236.5" width="8.45" height="4.69"/><rect class="cls-22" x="254.64" y="183.01" width="5.16" height="55.83"/><rect class="cls-22" x="252.77" y="236.5" width="8.45" height="4.69"/><rect class="cls-1" x="193.65" y="187.23" width="70.85" height="14.08"/><g class="cls-23"><rect class="cls-24" x="366.66" y="292.4" width="32.41" height="5.33" transform="translate(-280.5 258.23) rotate(-45)"/><rect class="cls-24" x="387.18" y="292.4" width="32.41" height="5.33" transform="translate(-274.49 272.74) rotate(-45)"/><rect class="cls-24" x="407.69" y="292.4" width="32.41" height="5.33" transform="translate(-268.49 287.24) rotate(-45)"/><rect class="cls-24" x="428.2" y="292.4" width="32.41" height="5.33" transform="translate(-262.47 301.78) rotate(-45.01)"/></g><rect class="cls-1" x="193.65" y="212.57" width="70.85" height="13.61"/><g class="cls-25"><rect class="cls-24" x="366.66" y="317.43" width="32.41" height="5.33" transform="translate(-298.21 265.51) rotate(-45)"/><rect class="cls-24" x="387.18" y="317.43" width="32.41" height="5.33" transform="translate(-292.2 280.01) rotate(-45)"/><rect class="cls-24" x="407.69" y="317.43" width="32.41" height="5.33" transform="translate(-286.19 294.52) rotate(-45)"/><rect class="cls-24" x="428.2" y="317.43" width="32.41" height="5.33" transform="translate(-280.18 309.05) rotate(-45)"/></g><rect class="cls-22" x="276.99" y="170.09" width="4.52" height="70.42"/><polygon class="cls-13" points="270.31 180.37 259.14 169.23 259.14 153.47 270.31 142.29 286.07 142.29 297.23 153.47 297.23 169.23 286.07 180.37 270.31 180.37"/><polygon class="cls-26" points="272.08 177.33 262.18 167.58 262.18 154.48 272.08 145.59 285.19 145.59 293.92 154.48 293.92 167.58 285.18 177.33 272.08 177.33"/><text class="cls-27" transform="translate(266.75 161.5)">UNDER</text><text class="cls-28" transform="translate(267.42 165.46)">CONST<tspan class="cls-29" x="9.19" y="0">R</tspan><tspan x="11.04" y="0">UCTION</tspan></text><polygon class="cls-2" points="266.5 240 294.2 241.21 295.4 237.19 271.56 223.02 272.42 220.14 269.93 219.4 263.11 242.25 265.6 243 266.5 240"/><g class="cls-30"><rect class="cls-24" x="468.85" y="336.37" width="16.05" height="4.34" transform="translate(-167.93 599.71) rotate(-73.38)"/><rect class="cls-24" x="461.16" y="334.29" width="16.05" height="3.9" transform="translate(-171.21 590.71) rotate(-73.38)"/><rect class="cls-24" x="451.8" y="331.73" width="19.08" height="3.9" transform="translate(-174.35 581.36) rotate(-73.38)"/><rect class="cls-24" x="436.27" y="327.27" width="30.36" height="7.81" transform="translate(-179.03 570.09) rotate(-73.38)"/></g></svg>